<svg width="268" height="70" viewBox="0 0 268 70" fill="none" xmlns="http://www.w3.org/2000/svg">
<path fill-rule="evenodd" clip-rule="evenodd" d="M37.4854 5.67034C37.7581 3.21702 36.0313 1.00171 33.5957 0.727088C31.16 0.434155 28.9607 2.19176 28.6881 4.64508C28.3609 7.44625 28.8153 10.7967 29.3969 14.2387C31.0146 14.733 32.5778 15.447 34.0319 16.2892C35.5951 12.5726 37.1219 8.89261 37.4854 5.67034ZM54.5895 16.4357C53.6261 14.1654 51.0087 13.1402 48.7548 14.1105C45.7921 15.4104 42.7203 17.9552 39.6303 20.5733C40.7936 21.7268 41.8841 23.0267 42.8111 24.4364C46.3192 23.997 49.6818 23.4661 52.2811 22.3309C54.5349 21.324 55.571 18.6876 54.5895 16.4357ZM47.1189 4.46199C45.1559 2.99732 42.3749 3.40011 40.9208 5.37741C38.7033 8.37998 37.2128 12.8655 35.5951 17.2412C36.1404 17.6074 36.6493 17.9736 37.1401 18.358C37.5036 18.651 37.8853 18.9622 38.267 19.2735C41.975 16.454 45.8284 13.7077 48.0459 10.7051C49.5001 8.72784 49.082 5.92666 47.1189 4.46199Z" fill="white"/>
<path d="M38.6851 40.3097C37.3218 41.7927 35.8677 43.1659 34.3227 44.5024C32.1597 46.3881 29.9604 48.219 27.7247 49.9766C25.3254 48.4936 23.5986 47.7429 23.3078 48.1274C23.0533 48.4753 24.053 49.7569 25.8525 51.4229C19.8179 55.9451 13.438 59.9363 6.58548 63.2135C5.51307 63.7261 4.38613 64.0923 3.27737 64.4951C2.98654 64.6049 2.67754 64.6049 2.55031 64.6232C0.805371 64.8246 0.278255 64.3486 0.350961 62.7375C0.569078 57.721 2.11407 53.0157 3.7136 48.3288C4.14983 47.0472 4.60425 45.7656 5.07683 44.4841C7.4943 45.967 9.22106 46.736 9.51188 46.3515C9.82088 45.9304 8.36677 44.246 5.93112 42.1406C7.67606 37.6001 9.62094 33.1329 11.9112 28.8487C16.4916 32.2724 20.5631 34.5243 21.0176 33.9018C21.472 33.2793 18.1093 29.9655 13.4743 26.5052L13.2744 26.3588C14.0742 24.9857 14.9103 23.6125 15.8009 22.276C16.9097 20.5916 18.2729 19.0537 19.618 17.5525C21.4174 15.5568 23.744 14.8794 26.3433 15.4653C34.6681 17.3328 40.4482 22.1479 43.1746 30.4049C43.7199 32.0893 43.2292 33.737 42.3749 35.2566C41.7932 36.2819 41.157 37.2523 40.4482 38.1677C36.0495 34.9271 32.2324 32.8399 31.7962 33.4258C31.3781 34.0117 34.4136 37.0326 38.6851 40.3097Z" fill="white"/>
<path d="M92.3055 10.4578C86.5436 10.4578 82.7992 12.7829 80.5272 17.1952H80.4V14.449C80.4 12.4717 78.8004 10.8789 76.8374 10.8789C74.8743 10.8789 73.293 12.4717 73.293 14.449V44.8225C73.293 46.7998 74.8743 48.411 76.8374 48.411H77.1827C79.1458 48.411 80.7453 46.7998 80.7453 44.8225V26.7339C80.7453 20.8203 84.1079 16.884 89.7245 16.884C95.1774 16.884 97.7948 20.0697 97.7948 25.7635V44.8225C97.7948 46.7998 99.3761 48.411 101.339 48.411H101.685C103.648 48.411 105.229 46.7998 105.229 44.8225V24.3538C105.229 15.7123 100.539 10.4578 92.3055 10.4578Z" fill="white"/>
<path d="M128.222 10.3845C117.807 10.3845 111.009 18.0374 111.009 29.7731C111.009 41.527 117.734 48.8504 128.531 48.8504C135.22 48.8504 140.746 45.8661 143.236 41.2158C144.163 39.5131 142.89 37.4077 140.964 37.4077H139.073C138.128 37.4077 137.31 37.9569 136.82 38.7808C135.384 41.2707 132.366 42.772 128.677 42.772C122.569 42.772 118.516 38.4878 118.516 31.9884V31.549H142.327C143.745 31.549 144.908 30.3772 144.908 28.9492V28.9126C144.908 17.5431 138.455 10.3845 128.222 10.3845ZM118.552 26.2212C118.97 20.4541 122.842 16.4995 128.204 16.4995C133.621 16.4995 137.292 20.3809 137.456 26.2212H118.552Z" fill="white"/>
<path d="M179.571 35.7965H177.589C176.517 35.7965 175.59 36.4739 175.19 37.4809C173.9 40.7947 170.955 42.5706 166.774 42.5706C160.794 42.5706 156.759 37.7189 156.759 29.6449C156.759 21.754 160.74 16.7192 166.738 16.7192C171.064 16.7192 173.954 18.8796 175.136 21.9554C175.535 22.9807 176.462 23.6947 177.571 23.6947H179.552C181.279 23.6947 182.57 21.992 182.006 20.3443C180.098 14.687 174.645 10.3845 166.665 10.3845C156.141 10.3845 149.198 17.9642 149.198 29.6449C149.198 41.527 156.159 48.8504 166.738 48.8504C174.318 48.8504 179.952 45.1155 182.024 39.2019C182.606 37.5358 181.334 35.7965 179.571 35.7965Z" fill="white"/>
<path d="M201.891 42.5157C201.764 42.4974 201.618 42.4791 201.491 42.4791C199.037 42.1862 197.892 40.6483 197.892 37.7555V16.7925H202.091C203.727 16.7925 205.036 15.456 205.036 13.8265C205.036 12.1971 203.727 10.8789 202.091 10.8789H197.892V6.17363C197.892 5.14836 197.474 4.21463 196.802 3.53722C196.129 2.85981 195.22 2.43872 194.184 2.43872C192.149 2.43872 190.495 4.12309 190.495 6.17363V10.8789H188.277C186.659 10.8789 185.332 12.1971 185.332 13.8265C185.332 15.456 186.659 16.7925 188.277 16.7925H190.495V38.5245C190.495 45.7746 193.366 48.649 200.819 48.649C200.837 48.649 200.855 48.649 200.855 48.649C201.709 48.649 202.491 48.3927 203.145 47.935C203.163 47.935 203.182 47.9167 203.182 47.9167C203.945 47.3674 204.454 46.4703 204.454 45.4634C204.454 43.9621 203.345 42.6988 201.891 42.5157Z" fill="white"/>
<path d="M226.066 10.3845C220.249 10.3845 215.451 12.7646 212.997 16.4446C212.597 17.0671 212.397 17.7445 212.397 18.4036C212.397 20.2344 213.851 21.9371 215.905 21.9371C217.105 21.9371 218.25 21.2963 218.813 20.2344C220.013 17.9642 222.576 16.5727 225.866 16.5727C230.846 16.5727 233.682 18.9345 233.682 23.2187V23.6764C233.682 25.0495 232.628 26.1846 231.264 26.2579L223.63 26.6973C214.433 27.2831 209.398 31.0913 209.398 37.664C209.398 44.3648 214.542 48.7771 221.994 48.7771C227.066 48.7771 231.701 46.2323 233.754 42.1495H233.918V44.8225C233.918 45.8112 234.318 46.7083 234.954 47.3674C235.608 48.0082 236.499 48.411 237.481 48.411C239.444 48.411 241.025 46.7998 241.025 44.8225V22.6694C241.025 15.2362 235.154 10.3845 226.066 10.3845ZM233.682 34.3135C233.682 39.2385 229.501 42.8086 223.976 42.8086C219.686 42.8086 216.905 40.7398 216.905 37.5175C216.905 34.2037 219.559 32.2996 224.63 31.9884L233.682 31.3659V34.3135Z" fill="white"/>
<path d="M264.745 10.4944C260.347 10.4944 256.929 13.0209 255.748 17.1952H255.621V14.449C255.621 12.4717 254.021 10.8789 252.076 10.8789C250.113 10.8789 248.514 12.4717 248.514 14.449V44.6578C248.514 45.683 248.932 46.6351 249.604 47.3125C250.277 47.9899 251.204 48.411 252.24 48.411C254.294 48.411 255.966 46.7266 255.966 44.6578V26.0199C255.966 20.7288 259.056 17.3051 263.964 17.3051C264.164 17.3051 264.382 17.3051 264.582 17.3234C266.109 17.3783 267.345 16.1151 267.345 14.5771V13.1308C267.345 11.6844 266.181 10.4944 264.745 10.4944Z" fill="white"/>
<path d="M204.454 45.4633C204.454 46.4702 203.945 47.3673 203.182 47.9166C203.182 47.9166 203.164 47.9349 203.145 47.9349C202.673 48.2644 202.109 48.4475 201.491 48.4475C199.837 48.4475 198.51 47.111 198.51 45.4633C198.51 43.8155 199.837 42.479 201.491 42.479C201.619 42.479 201.764 42.4973 201.891 42.5156C203.345 42.6987 204.454 43.962 204.454 45.4633Z" fill="white"/>
<path d="M82.1492 63.7108C81.4305 64.4201 80.5579 64.7748 79.5312 64.7748C78.5045 64.7748 77.6319 64.4201 76.9132 63.7108C76.2039 63.0014 75.8492 62.1288 75.8492 61.0928C75.8492 60.0568 76.2039 59.1841 76.9132 58.4748C77.6319 57.7654 78.5045 57.4108 79.5312 57.4108C80.5579 57.4108 81.4305 57.7654 82.1492 58.4748C82.8679 59.1841 83.2272 60.0568 83.2272 61.0928C83.2272 62.1288 82.8679 63.0014 82.1492 63.7108ZM79.5312 63.5848C80.2312 63.5848 80.8192 63.3468 81.2952 62.8708C81.7712 62.3948 82.0092 61.8021 82.0092 61.0928C82.0092 60.3834 81.7712 59.7908 81.2952 59.3148C80.8192 58.8388 80.2312 58.6008 79.5312 58.6008C78.8405 58.6008 78.2572 58.8388 77.7812 59.3148C77.3052 59.7908 77.0672 60.3834 77.0672 61.0928C77.0672 61.8021 77.3052 62.3948 77.7812 62.8708C78.2572 63.3468 78.8405 63.5848 79.5312 63.5848ZM93.6491 57.4108C94.4704 57.4108 95.1284 57.6721 95.6231 58.1948C96.1178 58.7081 96.3651 59.4081 96.3651 60.2948V64.5928H95.1471V60.3648C95.1471 59.7954 94.9931 59.3568 94.6851 59.0488C94.3771 58.7314 93.9524 58.5728 93.4111 58.5728C92.8044 58.5728 92.3144 58.7641 91.9411 59.1468C91.5678 59.5201 91.3811 60.0988 91.3811 60.8828V64.5928H90.1631V57.5928H91.3811V58.6008C91.8758 57.8074 92.6318 57.4108 93.6491 57.4108ZM103.565 64.5928V54.3728H104.783V64.5928H103.565ZM112.758 56.3188C112.524 56.3188 112.328 56.2394 112.17 56.0808C112.011 55.9221 111.932 55.7308 111.932 55.5068C111.932 55.2828 112.011 55.0914 112.17 54.9328C112.328 54.7648 112.524 54.6808 112.758 54.6808C112.982 54.6808 113.173 54.7648 113.332 54.9328C113.49 55.0914 113.57 55.2828 113.57 55.5068C113.57 55.7308 113.49 55.9221 113.332 56.0808C113.173 56.2394 112.982 56.3188 112.758 56.3188ZM112.142 64.5928V57.5928H113.36V64.5928H112.142ZM124.204 57.4108C125.025 57.4108 125.683 57.6721 126.178 58.1948C126.672 58.7081 126.92 59.4081 126.92 60.2948V64.5928H125.702V60.3648C125.702 59.7954 125.548 59.3568 125.24 59.0488C124.932 58.7314 124.507 58.5728 123.966 58.5728C123.359 58.5728 122.869 58.7641 122.496 59.1468C122.122 59.5201 121.936 60.0988 121.936 60.8828V64.5928H120.718V57.5928H121.936V58.6008C122.43 57.8074 123.186 57.4108 124.204 57.4108ZM134.974 61.6528C135.095 62.2781 135.38 62.7634 135.828 63.1088C136.285 63.4541 136.845 63.6268 137.508 63.6268C138.432 63.6268 139.104 63.2861 139.524 62.6048L140.56 63.1928C139.879 64.2474 138.852 64.7748 137.48 64.7748C136.369 64.7748 135.464 64.4294 134.764 63.7388C134.073 63.0388 133.728 62.1568 133.728 61.0928C133.728 60.0381 134.069 59.1608 134.75 58.4608C135.431 57.7608 136.313 57.4108 137.396 57.4108C138.423 57.4108 139.258 57.7748 139.902 58.5028C140.555 59.2214 140.882 60.0894 140.882 61.1068C140.882 61.2841 140.868 61.4661 140.84 61.6528H134.974ZM137.396 58.5588C136.743 58.5588 136.201 58.7454 135.772 59.1188C135.343 59.4828 135.077 59.9728 134.974 60.5888H139.65C139.547 59.9261 139.286 59.4221 138.866 59.0768C138.446 58.7314 137.956 58.5588 137.396 58.5588ZM162.592 57.5928H163.796V64.2988C163.796 65.3348 163.446 66.1374 162.746 66.7068C162.046 67.2854 161.206 67.5748 160.226 67.5748C159.442 67.5748 158.766 67.4254 158.196 67.1268C157.627 66.8374 157.198 66.4174 156.908 65.8668L157.972 65.2648C158.355 66.0488 159.116 66.4408 160.254 66.4408C160.982 66.4408 161.552 66.2494 161.962 65.8668C162.382 65.4841 162.592 64.9614 162.592 64.2988V63.3048C161.976 64.2381 161.099 64.7048 159.96 64.7048C158.962 64.7048 158.117 64.3501 157.426 63.6408C156.736 62.9314 156.39 62.0681 156.39 61.0508C156.39 60.0334 156.736 59.1748 157.426 58.4748C158.117 57.7654 158.962 57.4108 159.96 57.4108C161.108 57.4108 161.986 57.8728 162.592 58.7968V57.5928ZM158.322 62.8288C158.798 63.3048 159.391 63.5428 160.1 63.5428C160.81 63.5428 161.402 63.3048 161.878 62.8288C162.354 62.3528 162.592 61.7601 162.592 61.0508C162.592 60.3508 162.354 59.7628 161.878 59.2868C161.402 58.8108 160.81 58.5728 160.1 58.5728C159.391 58.5728 158.798 58.8108 158.322 59.2868C157.846 59.7628 157.608 60.3508 157.608 61.0508C157.608 61.7601 157.846 62.3528 158.322 62.8288ZM172.36 58.7688C172.761 57.9008 173.489 57.4668 174.544 57.4668V58.7408C173.946 58.7128 173.433 58.8714 173.004 59.2168C172.574 59.5621 172.36 60.1174 172.36 60.8828V64.5928H171.142V57.5928H172.36V58.7688ZM186.761 63.7108C186.042 64.4201 185.169 64.7748 184.143 64.7748C183.116 64.7748 182.243 64.4201 181.525 63.7108C180.815 63.0014 180.461 62.1288 180.461 61.0928C180.461 60.0568 180.815 59.1841 181.525 58.4748C182.243 57.7654 183.116 57.4108 184.143 57.4108C185.169 57.4108 186.042 57.7654 186.761 58.4748C187.479 59.1841 187.839 60.0568 187.839 61.0928C187.839 62.1288 187.479 63.0014 186.761 63.7108ZM184.143 63.5848C184.843 63.5848 185.431 63.3468 185.907 62.8708C186.383 62.3948 186.621 61.8021 186.621 61.0928C186.621 60.3834 186.383 59.7908 185.907 59.3148C185.431 58.8388 184.843 58.6008 184.143 58.6008C183.452 58.6008 182.869 58.8388 182.393 59.3148C181.917 59.7908 181.679 60.3834 181.679 61.0928C181.679 61.8021 181.917 62.3948 182.393 62.8708C182.869 63.3468 183.452 63.5848 184.143 63.5848ZM198.064 64.7748C197.01 64.7748 196.132 64.4248 195.432 63.7248C194.732 63.0154 194.382 62.1381 194.382 61.0928C194.382 60.0474 194.732 59.1748 195.432 58.4748C196.132 57.7654 197.01 57.4108 198.064 57.4108C198.755 57.4108 199.376 57.5788 199.926 57.9148C200.477 58.2414 200.888 58.6848 201.158 59.2448L200.136 59.8328C199.959 59.4594 199.684 59.1608 199.31 58.9368C198.946 58.7128 198.531 58.6008 198.064 58.6008C197.364 58.6008 196.776 58.8388 196.3 59.3148C195.834 59.7908 195.6 60.3834 195.6 61.0928C195.6 61.7928 195.834 62.3808 196.3 62.8568C196.776 63.3328 197.364 63.5708 198.064 63.5708C198.531 63.5708 198.951 63.4634 199.324 63.2488C199.698 63.0248 199.982 62.7261 200.178 62.3528L201.214 62.9548C200.916 63.5054 200.486 63.9488 199.926 64.2848C199.366 64.6114 198.746 64.7748 198.064 64.7748ZM208.675 61.6528C208.797 62.2781 209.081 62.7634 209.529 63.1088C209.987 63.4541 210.547 63.6268 211.209 63.6268C212.133 63.6268 212.805 63.2861 213.225 62.6048L214.261 63.1928C213.58 64.2474 212.553 64.7748 211.181 64.7748C210.071 64.7748 209.165 64.4294 208.465 63.7388C207.775 63.0388 207.429 62.1568 207.429 61.0928C207.429 60.0381 207.77 59.1608 208.451 58.4608C209.133 57.7608 210.015 57.4108 211.097 57.4108C212.124 57.4108 212.959 57.7748 213.603 58.5028C214.257 59.2214 214.583 60.0894 214.583 61.1068C214.583 61.2841 214.569 61.4661 214.541 61.6528H208.675ZM211.097 58.5588C210.444 58.5588 209.903 58.7454 209.473 59.1188C209.044 59.4828 208.778 59.9728 208.675 60.5888H213.351C213.249 59.9261 212.987 59.4221 212.567 59.0768C212.147 58.7314 211.657 58.5588 211.097 58.5588ZM222.701 58.7688C223.103 57.9008 223.831 57.4668 224.885 57.4668V58.7408C224.288 58.7128 223.775 58.8714 223.345 59.2168C222.916 59.5621 222.701 60.1174 222.701 60.8828V64.5928H221.483V57.5928H222.701V58.7688ZM232.193 56.3188C231.96 56.3188 231.764 56.2394 231.605 56.0808C231.446 55.9221 231.367 55.7308 231.367 55.5068C231.367 55.2828 231.446 55.0914 231.605 54.9328C231.764 54.7648 231.96 54.6808 232.193 54.6808C232.417 54.6808 232.608 54.7648 232.767 54.9328C232.926 55.0914 233.005 55.2828 233.005 55.5068C233.005 55.7308 232.926 55.9221 232.767 56.0808C232.608 56.2394 232.417 56.3188 232.193 56.3188ZM231.577 64.5928V57.5928H232.795V64.5928H231.577ZM241.007 61.6528C241.129 62.2781 241.413 62.7634 241.861 63.1088C242.319 63.4541 242.879 63.6268 243.541 63.6268C244.465 63.6268 245.137 63.2861 245.557 62.6048L246.593 63.1928C245.912 64.2474 244.885 64.7748 243.513 64.7748C242.403 64.7748 241.497 64.4294 240.797 63.7388C240.107 63.0388 239.761 62.1568 239.761 61.0928C239.761 60.0381 240.102 59.1608 240.783 58.4608C241.465 57.7608 242.347 57.4108 243.429 57.4108C244.456 57.4108 245.291 57.7748 245.935 58.5028C246.589 59.2214 246.915 60.0894 246.915 61.1068C246.915 61.2841 246.901 61.4661 246.873 61.6528H241.007ZM243.429 58.5588C242.776 58.5588 242.235 58.7454 241.805 59.1188C241.376 59.4828 241.11 59.9728 241.007 60.5888H245.683C245.581 59.9261 245.319 59.4221 244.899 59.0768C244.479 58.7314 243.989 58.5588 243.429 58.5588ZM257.418 58.7688H255.556V62.5628C255.556 62.9081 255.622 63.1554 255.752 63.3048C255.892 63.4448 256.102 63.5194 256.382 63.5288C256.662 63.5288 257.008 63.5194 257.418 63.5008V64.5928C256.354 64.7328 255.575 64.6488 255.08 64.3408C254.586 64.0234 254.338 63.4308 254.338 62.5628V58.7688H252.952V57.5928H254.338V55.9968L255.556 55.6328V57.5928H257.418V58.7688Z" fill="white"/>
</svg>
