<svg width="226" height="172" viewBox="0 0 226 172" fill="none" xmlns="http://www.w3.org/2000/svg">
<path d="M223.598 157.916L173.169 91.7633C170.155 87.8108 165.475 85.4934 160.505 85.4934H65.4904C60.5212 85.4934 55.8405 87.8108 52.8269 91.7633L2.40204 157.916C-1.83897 163.48 2.12724 171.495 9.12535 171.495H216.875C223.873 171.491 227.839 163.476 223.598 157.916Z" fill="url(#paint0_linear_1_507)"/>
<path d="M5.24142 158.053C3.90867 158.053 2.67209 158.447 1.63245 159.12C-1.26206 164.566 2.62171 171.49 9.12519 171.49H216.875C223.378 171.49 227.262 164.566 224.368 159.12C223.328 158.447 222.091 158.053 220.759 158.053H5.24142Z" fill="#C9CDD3"/>
<path d="M91.353 119.513L127.434 158.053H112.686L80.7551 124.153L91.353 119.513Z" fill="white"/>
<path d="M166.409 86.6384C164.554 85.8965 162.557 85.498 160.51 85.498H142.181L15.212 141.112L2.40202 157.916C2.20508 158.177 2.03104 158.442 1.86617 158.708L166.409 86.6384Z" fill="#FEE379"/>
<path d="M1.8707 158.708L80.7552 124.152L112.686 158.053L1.8707 158.708Z" fill="#86ADFF"/>
<path d="M15.212 141.112L142.181 85.498H65.4903C60.5211 85.498 55.8404 87.8155 52.8269 91.768L15.212 141.112Z" fill="#69CA9F"/>
<path d="M191.172 115.382L187.275 110.271L163.532 120.649L141.787 97.4196L131.331 101.999L153.067 125.22L112.998 142.733L117.587 147.538L157.592 130.056L183.803 158.053H198.546L168.057 125.481L191.172 115.382Z" fill="#C9CDD3"/>
<path opacity="0.3" d="M175.372 94.6532L173.169 91.7633C170.155 87.8108 165.475 85.4934 160.505 85.4934H112.998V121.821L175.372 94.6532Z" fill="url(#paint1_linear_1_507)"/>
<path d="M107.571 1.16796C89.425 3.59532 75.5525 18.1366 73.8625 36.3646C72.6992 48.9044 77.4348 60.3634 85.6145 68.3049C88.7655 71.3643 91.6921 74.6298 94.3759 78.0739C101.992 87.8429 107.209 99.2652 109.906 111.352L112.077 121.079C112.173 121.514 112.558 121.821 113.002 121.821C113.447 121.821 113.831 121.514 113.928 121.079L116.231 110.738C118.851 98.9858 123.875 87.8704 131.231 78.3395C133.855 74.9413 136.731 71.7399 139.877 68.795C147.53 61.6274 152.316 51.4325 152.316 40.1156C152.312 16.616 131.702 -2.06546 107.571 1.16796Z" fill="url(#paint2_linear_1_507)"/>
<path d="M121.616 51.8263C126.375 47.0669 126.375 39.3505 121.616 34.5912C116.856 29.8319 109.14 29.8319 104.381 34.5912C99.6212 39.3505 99.6212 47.0669 104.381 51.8263C109.14 56.5856 116.856 56.5856 121.616 51.8263Z" fill="white"/>
<defs>
<linearGradient id="paint0_linear_1_507" x1="18.1891" y1="71.9984" x2="180.413" y2="206.843" gradientUnits="userSpaceOnUse">
<stop stop-color="#F6F8FF"/>
<stop offset="1" stop-color="#DEE0ED"/>
</linearGradient>
<linearGradient id="paint1_linear_1_507" x1="187.4" y1="63.7068" x2="105.492" y2="113.685" gradientUnits="userSpaceOnUse">
<stop/>
<stop offset="1"/>
</linearGradient>
<linearGradient id="paint2_linear_1_507" x1="124.243" y1="82.5819" x2="95.4981" y2="-14.1702" gradientUnits="userSpaceOnUse">
<stop stop-color="#5565EE"/>
<stop offset="0.3091" stop-color="#5F75FF"/>
<stop offset="0.5137" stop-color="#6E89FA"/>
<stop offset="0.7638" stop-color="#6E89FA"/>
<stop offset="1" stop-color="#7D99FD"/>
</linearGradient>
</defs>
</svg>
